<svg width="307" height="51" viewBox="0 0 307 51" fill="none" xmlns="http://www.w3.org/2000/svg">
<mask id="mask0_210_82" style="mask-type:luminance" maskUnits="userSpaceOnUse" x="0" y="0" width="52" height="52">
<path d="M0.240723 0.000244141H51.2407V51.0002H0.240723V0.000244141Z" fill="white"/>
</mask>
<g mask="url(#mask0_210_82)">
<path fill-rule="evenodd" clip-rule="evenodd" d="M10.4178 41.8231L10.9959 42.396L11.0532 42.4533C12.8501 44.3127 12.8293 47.3127 10.9959 49.146C9.1626 50.9846 6.16781 51.0002 4.30843 49.2033L4.24593 49.146L3.67301 48.5731L2.1001 46.995C0.245931 45.1408 0.245931 42.1044 2.1001 40.245C3.95426 38.3856 6.99593 38.3856 8.8501 40.245L10.4178 41.8231ZM42.2511 15.6981L42.8084 15.1356L49.3345 8.60958C51.1886 6.75541 51.1886 3.71895 49.3345 1.85437C47.4751 0.000203431 44.4386 0.000203431 42.5845 1.85437L36.7043 7.745L36.0636 8.38562L35.5011 8.94291L32.1261 12.3179C30.2772 14.1773 30.2772 17.2137 32.1261 19.0731L35.5011 22.4481L36.1053 23.0471L42.6313 29.5731C44.4855 31.4273 47.5168 31.4273 49.3813 29.5731C51.2355 27.719 51.2355 24.6773 49.3813 22.8231L42.8553 16.2919L42.2511 15.6981ZM2.37093 1.90125V1.89604C4.2251 0.0418701 7.26156 0.0418701 9.11572 1.89604L49.2876 42.0992C51.1522 43.9533 51.1522 46.995 49.2876 48.8492C47.4334 50.7085 44.4022 50.7085 42.5428 48.8492L2.37093 8.64604C0.516764 6.79187 0.516764 3.75541 2.37093 1.90125ZM2.30843 21.146C4.1626 19.2919 7.19906 19.2919 9.05843 21.146L13.6313 25.7242L23.5324 35.6304L30.0584 42.1565C31.9126 44.0106 31.9126 47.0523 30.0584 48.9065C28.1938 50.7658 25.1626 50.7658 23.3084 48.9065L16.7824 42.3804L6.88656 32.4742L2.30843 27.9012C0.454264 26.0419 0.454264 23.0002 2.30843 21.146Z" fill="white"/>
</g>
<path d="M80.2782 38.002V8.4187H99.3824V12.7729H85.674V21.0645H96.7574V25.3354H85.674V38.002H80.2782Z" fill="white"/>
<path d="M123.952 38.502C120.994 38.502 118.41 37.8562 116.202 36.5645C113.994 35.2729 112.254 33.4812 110.994 31.1895C109.744 28.8875 109.119 26.226 109.119 23.2104C109.119 20.2 109.744 17.5437 110.994 15.252C112.254 12.9604 113.994 11.1687 116.202 9.87703C118.41 8.57495 120.994 7.9187 123.952 7.9187C126.879 7.9187 129.457 8.57495 131.681 9.87703C133.9 11.1687 135.629 12.9604 136.869 15.252C138.119 17.5437 138.744 20.2 138.744 23.2104C138.744 26.226 138.119 28.8875 136.869 31.1895C135.629 33.4812 133.9 35.2729 131.681 36.5645C129.457 37.8562 126.879 38.502 123.952 38.502ZM123.952 33.6479C126.77 33.6479 129.015 32.7208 130.681 30.8562C132.358 28.9968 133.202 26.45 133.202 23.2104C133.202 19.976 132.358 17.4291 130.681 15.5645C129.015 13.7052 126.77 12.7729 123.952 12.7729C121.129 12.7729 118.874 13.7052 117.181 15.5645C115.499 17.4291 114.66 19.976 114.66 23.2104C114.66 26.45 115.499 28.9968 117.181 30.8562C118.874 32.7208 121.129 33.6479 123.952 33.6479Z" fill="white"/>
<path d="M150.053 38.002V8.4187H160.908C163.267 8.4187 165.22 8.82495 166.762 9.62703C168.303 10.4343 169.449 11.5229 170.199 12.8979C170.96 14.2625 171.345 15.7677 171.345 17.4187C171.345 19.226 170.871 20.877 169.928 22.377C168.98 23.8666 167.512 24.95 165.512 25.627L171.637 38.002H165.428L159.928 26.3354H155.449V38.002H150.053ZM155.449 22.377H160.574C162.376 22.377 163.699 21.9395 164.533 21.0645C165.376 20.1895 165.803 19.0333 165.803 17.5854C165.803 16.1843 165.387 15.0593 164.553 14.2104C163.73 13.3666 162.392 12.9395 160.533 12.9395H155.449V22.377Z" fill="white"/>
<path d="M182.914 38.002V8.4187H193.018C196.476 8.4187 199.32 9.03849 201.56 10.2729C203.794 11.4968 205.455 13.2104 206.539 15.4187C207.633 17.627 208.185 20.226 208.185 23.2104C208.185 26.2 207.633 28.8041 206.539 31.0229C205.455 33.2312 203.794 34.95 201.56 36.1687C199.32 37.3927 196.476 38.002 193.018 38.002H182.914ZM188.31 33.3562H192.747C195.232 33.3562 197.19 32.9552 198.622 32.1479C200.065 31.3458 201.091 30.1895 201.705 28.6895C202.33 27.1791 202.643 25.351 202.643 23.2104C202.643 21.101 202.33 19.2885 201.705 17.7729C201.091 16.2468 200.065 15.075 198.622 14.252C197.19 13.4343 195.232 13.0229 192.747 13.0229H188.31V33.3562Z" fill="white"/>
<path d="M219.491 38.002V8.4187H238.803V12.7729H224.887V20.8979H237.532V25.1062H224.887V33.6479H238.803V38.002H219.491Z" fill="white"/>
<path d="M259.034 38.002L248.201 8.4187H253.992L262.367 32.4604L270.763 8.4187H276.472L265.659 38.002H259.034Z" fill="white"/>
<path d="M296.625 38.502C294.443 38.502 292.521 38.1322 290.854 37.3979C289.198 36.6479 287.896 35.5802 286.938 34.1895C285.979 32.7885 285.485 31.0854 285.458 29.0854H291.167C291.219 30.4604 291.719 31.6218 292.667 32.5645C293.61 33.5125 294.917 33.9812 296.583 33.9812C298.011 33.9812 299.151 33.6427 300 32.9604C300.844 32.2677 301.271 31.3458 301.271 30.1895C301.271 28.9812 300.896 28.0385 300.146 27.3562C299.396 26.6791 298.401 26.127 297.167 25.7104C295.927 25.2833 294.604 24.8302 293.188 24.3562C290.906 23.5645 289.172 22.5541 287.979 21.3145C286.781 20.0802 286.188 18.4343 286.188 16.377C286.156 14.627 286.568 13.127 287.417 11.877C288.276 10.6166 289.448 9.64266 290.938 8.96037C292.438 8.26766 294.156 7.9187 296.104 7.9187C298.073 7.9187 299.813 8.27287 301.313 8.9812C302.823 9.67912 304.011 10.6635 304.875 11.9395C305.735 13.2052 306.193 14.7104 306.25 16.4604H300.458C300.427 15.4187 300.026 14.4968 299.25 13.6895C298.485 12.8875 297.406 12.4812 296.021 12.4812C294.839 12.4552 293.844 12.7468 293.042 13.3562C292.235 13.9552 291.833 14.8302 291.833 15.9812C291.833 16.9708 292.146 17.752 292.771 18.3354C293.396 18.9187 294.24 19.4083 295.313 19.7937C296.38 20.1843 297.604 20.6062 298.979 21.0645C300.448 21.5645 301.792 22.1583 303 22.8354C304.208 23.5177 305.172 24.4135 305.896 25.5229C306.63 26.6375 307 28.0645 307 29.8145C307 31.3562 306.604 32.7937 305.813 34.127C305.031 35.45 303.865 36.5125 302.313 37.3145C300.771 38.1062 298.875 38.502 296.625 38.502Z" fill="white"/>
</svg>
