<svg width="500" height="500" viewBox="0 0 500 500" fill="none" xmlns="http://www.w3.org/2000/svg">
<path fill-rule="evenodd" clip-rule="evenodd" d="M191.953 283.854L194.151 286.016L194.37 286.234C201.203 293.281 201.13 304.625 194.151 311.573C187.167 318.516 175.771 318.589 168.693 311.792L168.474 311.573L166.276 309.406L160.297 303.432C153.24 296.412 153.24 284.922 160.297 277.88C167.349 270.859 178.917 270.859 185.974 277.88L191.953 283.854ZM313.062 184.984L315.188 182.87L317.63 180.443L340.01 158.167C347.068 151.146 347.068 139.656 340.01 132.609C332.932 125.589 321.391 125.589 314.333 132.609L291.953 154.886L289.51 157.318L287.385 159.432L274.547 172.208C267.495 179.229 267.495 190.719 274.547 197.761L287.385 210.542L289.682 212.797L314.505 237.505C321.557 244.526 333.104 244.526 340.182 237.505C347.234 230.484 347.234 218.969 340.182 211.948L315.359 187.245L313.062 184.984ZM161.323 132.781V132.755C168.375 125.734 179.943 125.734 187 132.755L339.839 284.896C346.917 291.917 346.917 303.432 339.839 310.453C332.786 317.474 321.24 317.474 314.161 310.453L161.323 158.313C154.266 151.292 154.266 139.802 161.323 132.781ZM161.099 205.609C168.156 198.589 179.698 198.589 186.776 205.609L204.182 222.927L241.844 260.412L266.667 285.115C273.719 292.136 273.719 303.651 266.667 310.672C259.589 317.693 248.042 317.693 240.99 310.672L216.167 285.969L178.505 248.484L161.099 231.167C154.047 224.146 154.047 212.63 161.099 205.609Z" fill="white"/>
<path d="M162.052 364.714V341.672H176.948V345.068H166.282V351.506H174.907V354.839H166.282V364.714H162.052Z" fill="white"/>
<path d="M196.099 365.11C193.792 365.11 191.777 364.61 190.058 363.61C188.334 362.599 186.98 361.193 185.995 359.401C185.021 357.61 184.537 355.542 184.537 353.193C184.537 350.849 185.021 348.776 185.995 346.985C186.98 345.193 188.334 343.797 190.058 342.797C191.777 341.787 193.792 341.276 196.099 341.276C198.376 341.276 200.381 341.787 202.12 342.797C203.855 343.797 205.204 345.193 206.162 346.985C207.131 348.776 207.62 350.849 207.62 353.193C207.62 355.542 207.131 357.61 206.162 359.401C205.204 361.193 203.855 362.599 202.12 363.61C200.381 364.61 198.376 365.11 196.099 365.11ZM196.099 361.318C198.292 361.318 200.042 360.599 201.349 359.151C202.652 357.709 203.308 355.724 203.308 353.193C203.308 350.667 202.652 348.683 201.349 347.235C200.042 345.792 198.292 345.068 196.099 345.068C193.902 345.068 192.146 345.792 190.829 347.235C189.506 348.683 188.849 350.667 188.849 353.193C188.849 355.724 189.506 357.709 190.829 359.151C192.146 360.599 193.902 361.318 196.099 361.318Z" fill="white"/>
<path d="M216.419 364.714V341.672H224.899C226.732 341.672 228.242 341.985 229.44 342.61C230.633 343.235 231.529 344.084 232.128 345.151C232.722 346.209 233.024 347.391 233.024 348.693C233.024 350.099 232.654 351.381 231.919 352.547C231.18 353.703 230.034 354.542 228.482 355.068L233.253 364.714H228.419L224.128 355.631H220.649V364.714H216.419ZM220.649 352.526H224.628C226.029 352.526 227.055 352.188 227.711 351.506C228.378 350.828 228.711 349.933 228.711 348.818C228.711 347.724 228.383 346.849 227.732 346.193C227.091 345.526 226.044 345.193 224.586 345.193H220.649V352.526Z" fill="white"/>
<path d="M242.023 364.714V341.672H249.898C252.591 341.672 254.815 342.151 256.565 343.11C258.315 344.058 259.606 345.396 260.44 347.131C261.283 348.855 261.711 350.875 261.711 353.193C261.711 355.516 261.283 357.542 260.44 359.276C259.606 361 258.315 362.339 256.565 363.297C254.815 364.245 252.591 364.714 249.898 364.714H242.023ZM246.252 361.089H249.711C251.638 361.089 253.158 360.776 254.273 360.151C255.398 359.526 256.195 358.631 256.669 357.464C257.153 356.287 257.398 354.86 257.398 353.193C257.398 351.542 257.153 350.125 256.669 348.943C256.195 347.766 255.398 346.855 254.273 346.214C253.158 345.578 251.638 345.256 249.711 345.256H246.252V361.089Z" fill="white"/>
<path d="M270.523 364.714V341.672H285.585V345.068H274.752V351.381H284.585V354.672H274.752V361.318H285.585V364.714H270.523Z" fill="white"/>
<path d="M301.333 364.714L292.916 341.672H297.416L303.937 360.401L310.479 341.672H314.937L306.5 364.714H301.333Z" fill="white"/>
<path d="M330.625 365.11C328.928 365.11 327.438 364.818 326.146 364.235C324.855 363.651 323.834 362.818 323.084 361.735C322.344 360.651 321.964 359.334 321.938 357.776H326.375C326.417 358.849 326.803 359.75 327.542 360.485C328.277 361.224 329.292 361.589 330.584 361.589C331.709 361.589 332.594 361.318 333.25 360.776C333.917 360.235 334.25 359.521 334.25 358.631C334.25 357.688 333.959 356.953 333.375 356.422C332.792 355.896 332.011 355.474 331.042 355.151C330.084 354.818 329.053 354.464 327.959 354.089C326.178 353.464 324.823 352.672 323.896 351.714C322.964 350.745 322.5 349.459 322.5 347.86C322.469 346.5 322.792 345.334 323.459 344.36C324.136 343.375 325.053 342.62 326.209 342.089C327.375 341.547 328.714 341.276 330.23 341.276C331.771 341.276 333.125 341.558 334.292 342.11C335.469 342.651 336.396 343.417 337.063 344.401C337.73 345.391 338.084 346.563 338.125 347.922H333.625C333.594 347.12 333.277 346.401 332.667 345.776C332.068 345.151 331.235 344.839 330.167 344.839C329.25 344.813 328.48 345.037 327.855 345.506C327.23 345.979 326.917 346.667 326.917 347.568C326.917 348.334 327.152 348.943 327.625 349.401C328.11 349.849 328.771 350.224 329.605 350.526C330.438 350.834 331.396 351.162 332.48 351.506C333.615 351.912 334.657 352.375 335.605 352.901C336.547 353.433 337.303 354.131 337.875 355.006C338.443 355.87 338.73 356.974 338.73 358.318C338.73 359.526 338.417 360.651 337.792 361.693C337.178 362.724 336.271 363.547 335.063 364.172C333.855 364.797 332.375 365.11 330.625 365.11Z" fill="white"/>
</svg>
