<svg width="500" height="500" viewBox="0 0 500 500" fill="none" xmlns="http://www.w3.org/2000/svg">
<mask id="mask0_55_414" style="mask-type:luminance" maskUnits="userSpaceOnUse" x="91" y="224" width="52" height="52">
<path d="M91.4584 224.474H142.458V275.474H91.4584V224.474Z" fill="white"/>
</mask>
<g mask="url(#mask0_55_414)">
<path fill-rule="evenodd" clip-rule="evenodd" d="M101.635 266.297L102.214 266.87L102.271 266.927C104.068 268.787 104.047 271.787 102.214 273.62C100.38 275.459 97.3855 275.474 95.5261 273.677L95.4636 273.62L94.8907 273.047L93.3177 271.469C91.4636 269.615 91.4636 266.578 93.3177 264.719C95.1719 262.86 98.2136 262.86 100.068 264.719L101.635 266.297ZM133.469 240.172L134.026 239.61L140.552 233.084C142.406 231.229 142.406 228.193 140.552 226.328C138.693 224.474 135.656 224.474 133.802 226.328L127.922 232.219L127.281 232.86L126.719 233.417L123.344 236.792C121.495 238.651 121.495 241.688 123.344 243.547L126.719 246.922L127.323 247.521L133.849 254.047C135.703 255.901 138.734 255.901 140.599 254.047C142.453 252.193 142.453 249.151 140.599 247.297L134.073 240.766L133.469 240.172ZM93.5886 226.375V226.37C95.4427 224.516 98.4792 224.516 100.333 226.37L140.505 266.573C142.37 268.427 142.37 271.469 140.505 273.323C138.651 275.183 135.62 275.183 133.76 273.323L93.5886 233.12C91.7344 231.266 91.7344 228.229 93.5886 226.375ZM93.5261 245.62C95.3802 243.766 98.4167 243.766 100.276 245.62L104.849 250.198L114.75 260.104L121.276 266.63C123.13 268.485 123.13 271.526 121.276 273.38C119.412 275.24 116.38 275.24 114.526 273.38L108 266.854L98.1042 256.948L93.5261 252.375C91.6719 250.516 91.6719 247.474 93.5261 245.62Z" fill="white"/>
</g>
<path d="M171.496 262.476V232.893H190.6V237.247H176.892V245.539H187.975V249.809H176.892V262.476H171.496Z" fill="white"/>
<path d="M215.17 262.976C212.211 262.976 209.628 262.33 207.42 261.039C205.211 259.747 203.472 257.955 202.211 255.664C200.961 253.361 200.336 250.7 200.336 247.684C200.336 244.674 200.961 242.018 202.211 239.726C203.472 237.434 205.211 235.643 207.42 234.351C209.628 233.049 212.211 232.393 215.17 232.393C218.097 232.393 220.675 233.049 222.899 234.351C225.118 235.643 226.847 237.434 228.086 239.726C229.336 242.018 229.961 244.674 229.961 247.684C229.961 250.7 229.336 253.361 228.086 255.664C226.847 257.955 225.118 259.747 222.899 261.039C220.675 262.33 218.097 262.976 215.17 262.976ZM215.17 258.122C217.987 258.122 220.232 257.195 221.899 255.33C223.576 253.471 224.42 250.924 224.42 247.684C224.42 244.45 223.576 241.903 221.899 240.039C220.232 238.179 217.987 237.247 215.17 237.247C212.347 237.247 210.092 238.179 208.399 240.039C206.717 241.903 205.878 244.45 205.878 247.684C205.878 250.924 206.717 253.471 208.399 255.33C210.092 257.195 212.347 258.122 215.17 258.122Z" fill="white"/>
<path d="M241.271 262.476V232.893H252.125C254.485 232.893 256.438 233.299 257.979 234.101C259.521 234.908 260.667 235.997 261.417 237.372C262.177 238.736 262.563 240.242 262.563 241.893C262.563 243.7 262.089 245.351 261.146 246.851C260.198 248.341 258.729 249.424 256.729 250.101L262.854 262.476H256.646L251.146 250.809H246.667V262.476H241.271ZM246.667 246.851H251.792C253.594 246.851 254.917 246.414 255.75 245.539C256.594 244.664 257.021 243.507 257.021 242.059C257.021 240.658 256.604 239.533 255.771 238.684C254.948 237.841 253.61 237.414 251.75 237.414H246.667V246.851Z" fill="white"/>
<path d="M274.131 262.476V232.893H284.236C287.694 232.893 290.538 233.512 292.777 234.747C295.012 235.971 296.673 237.684 297.756 239.893C298.85 242.101 299.402 244.7 299.402 247.684C299.402 250.674 298.85 253.278 297.756 255.497C296.673 257.705 295.012 259.424 292.777 260.643C290.538 261.867 287.694 262.476 284.236 262.476H274.131ZM279.527 257.83H283.965C286.449 257.83 288.408 257.429 289.84 256.622C291.283 255.82 292.309 254.664 292.923 253.164C293.548 251.653 293.861 249.825 293.861 247.684C293.861 245.575 293.548 243.762 292.923 242.247C292.309 240.721 291.283 239.549 289.84 238.726C288.408 237.908 286.449 237.497 283.965 237.497H279.527V257.83Z" fill="white"/>
<path d="M310.708 262.476V232.893H330.021V237.247H316.104V245.372H328.75V249.58H316.104V258.122H330.021V262.476H310.708Z" fill="white"/>
<path d="M350.252 262.476L339.418 232.893H345.21L353.585 256.934L361.981 232.893H367.689L356.877 262.476H350.252Z" fill="white"/>
<path d="M387.843 262.976C385.66 262.976 383.739 262.606 382.072 261.872C380.416 261.122 379.114 260.054 378.155 258.664C377.197 257.262 376.702 255.559 376.676 253.559H382.384C382.436 254.934 382.936 256.096 383.884 257.039C384.827 257.986 386.134 258.455 387.801 258.455C389.228 258.455 390.369 258.117 391.218 257.434C392.061 256.742 392.489 255.82 392.489 254.664C392.489 253.455 392.114 252.512 391.364 251.83C390.614 251.153 389.619 250.601 388.384 250.184C387.145 249.757 385.822 249.304 384.405 248.83C382.124 248.039 380.39 247.028 379.197 245.789C377.999 244.554 377.405 242.908 377.405 240.851C377.374 239.101 377.785 237.601 378.634 236.351C379.494 235.091 380.666 234.117 382.155 233.434C383.655 232.742 385.374 232.393 387.322 232.393C389.291 232.393 391.03 232.747 392.53 233.455C394.041 234.153 395.228 235.137 396.093 236.414C396.952 237.679 397.41 239.184 397.468 240.934H391.676C391.645 239.893 391.244 238.971 390.468 238.164C389.702 237.361 388.624 236.955 387.239 236.955C386.056 236.929 385.061 237.221 384.259 237.83C383.452 238.429 383.051 239.304 383.051 240.455C383.051 241.445 383.364 242.226 383.989 242.809C384.614 243.393 385.457 243.882 386.53 244.268C387.598 244.658 388.822 245.08 390.197 245.539C391.666 246.039 393.009 246.632 394.218 247.309C395.426 247.992 396.39 248.887 397.114 249.997C397.848 251.111 398.218 252.539 398.218 254.289C398.218 255.83 397.822 257.268 397.03 258.601C396.249 259.924 395.082 260.986 393.53 261.789C391.989 262.58 390.093 262.976 387.843 262.976Z" fill="white"/>
</svg>
