<svg width="400" height="500" viewBox="0 0 400 500" fill="none" xmlns="http://www.w3.org/2000/svg">
<path fill-rule="evenodd" clip-rule="evenodd" d="M77.5984 328.693L82.2143 333.232L82.6737 333.692C97.0246 348.491 96.8715 372.315 82.2143 386.906C67.5462 401.487 43.6134 401.64 28.7483 387.366L28.2889 386.906L23.673 382.356L11.1159 369.81C-3.70532 355.065 -3.70532 330.935 11.1159 316.147C25.9263 301.402 50.22 301.402 65.0413 316.147L77.5984 328.693ZM331.944 121.053L336.407 116.612L341.537 111.515L388.539 64.7323C403.36 49.9876 403.36 25.8579 388.539 11.0585C373.674 -3.68618 349.435 -3.68618 334.613 11.0585L287.612 57.8412L282.482 62.9494L278.019 67.3903L251.056 94.2217C236.246 108.966 236.246 133.096 251.056 147.885L278.019 174.727L282.843 179.463L334.974 231.354C349.785 246.099 374.035 246.099 388.9 231.354C403.71 216.609 403.71 192.425 388.9 177.68L336.768 125.8L331.944 121.053ZM13.2708 11.4195V11.3648C28.0811 -3.37991 52.3749 -3.37991 67.1961 11.3648L388.178 330.881C403.043 345.625 403.043 369.81 388.178 384.554C373.367 399.299 349.117 399.299 334.252 384.554L13.2708 65.0386C-1.55049 50.2939 -1.55049 26.1642 13.2708 11.4195ZM12.8004 164.368C27.6217 149.624 51.8608 149.624 66.7258 164.368L103.281 200.738L182.375 279.46L234.507 331.34C249.317 346.085 249.317 370.269 234.507 385.014C219.642 399.759 195.392 399.759 180.582 385.014L128.45 333.134L49.3559 254.412L12.8004 218.042C-2.0099 203.297 -2.0099 179.113 12.8004 164.368Z" fill="white"/>
<path d="M14.8026 498.509V450.119H46.0858V457.25H23.6844V470.77H41.798V477.77H23.6844V498.509H14.8026Z" fill="white"/>
<path d="M86.3063 499.34C81.4606 499.34 77.2275 498.29 73.6179 496.19C69.9974 494.068 67.1535 491.115 65.0861 487.352C63.0407 483.589 62.0234 479.247 62.0234 474.314C62.0234 469.392 63.0407 465.038 65.0861 461.275C67.1535 457.513 69.9974 454.581 73.6179 452.481C77.2275 450.359 81.4606 449.287 86.3063 449.287C91.0862 449.287 95.2975 450.359 98.9508 452.481C102.593 454.581 105.426 457.513 107.439 461.275C109.473 465.038 110.502 469.392 110.502 474.314C110.502 479.247 109.473 483.589 107.439 487.352C105.426 491.115 102.593 494.068 98.9508 496.19C95.2975 498.29 91.0862 499.34 86.3063 499.34ZM86.3063 491.377C90.9112 491.377 94.5865 489.868 97.332 486.827C100.067 483.797 101.445 479.63 101.445 474.314C101.445 469.009 100.067 464.841 97.332 461.8C94.5865 458.771 90.9112 457.25 86.3063 457.25C81.6903 457.25 78.0042 458.771 75.2368 461.8C72.4585 464.841 71.0803 469.009 71.0803 474.314C71.0803 479.63 72.4585 483.797 75.2368 486.827C78.0042 489.868 81.6903 491.377 86.3063 491.377Z" fill="white"/>
<path d="M128.981 498.509V450.119H146.788C150.638 450.119 153.81 450.775 156.326 452.088C158.831 453.4 160.712 455.183 161.97 457.425C163.217 459.646 163.852 462.129 163.852 464.863C163.852 467.817 163.075 470.507 161.533 472.958C159.98 475.386 157.573 477.147 154.314 478.252L164.333 498.509H154.182L145.169 479.433H137.863V498.509H128.981ZM137.863 472.914H146.219C149.162 472.914 151.317 472.203 152.695 470.77C154.095 469.348 154.795 467.467 154.795 465.126C154.795 462.829 154.106 460.991 152.739 459.613C151.393 458.213 149.195 457.513 146.132 457.513H137.863V472.914Z" fill="white"/>
<path d="M182.752 498.509V450.119H199.291C204.946 450.119 209.616 451.125 213.291 453.138C216.967 455.128 219.679 457.939 221.429 461.582C223.201 465.202 224.098 469.446 224.098 474.314C224.098 479.192 223.201 483.447 221.429 487.09C219.679 490.71 216.967 493.521 213.291 495.534C209.616 497.525 204.946 498.509 199.291 498.509H182.752ZM191.634 490.896H198.897C202.944 490.896 206.138 490.24 208.479 488.927C210.841 487.615 212.515 485.733 213.51 483.283C214.527 480.811 215.042 477.814 215.042 474.314C215.042 470.847 214.527 467.871 213.51 465.388C212.515 462.916 210.841 461.002 208.479 459.657C206.138 458.322 202.944 457.644 198.897 457.644H191.634V490.896Z" fill="white"/>
<path d="M242.605 498.509V450.119H274.238V457.25H251.487V470.507H272.138V477.42H251.487V491.378H274.238V498.509H242.605Z" fill="white"/>
<path d="M307.311 498.509L289.634 450.119H299.085L312.78 489.452L326.518 450.119H335.881L318.161 498.509H307.311Z" fill="white"/>
<path d="M368.829 499.34C365.263 499.34 362.135 498.728 359.422 497.503C356.709 496.278 354.565 494.528 352.99 492.252C351.437 489.977 350.639 487.21 350.584 483.939H359.903C359.991 486.193 360.8 488.085 362.353 489.627C363.896 491.18 366.029 491.946 368.741 491.946C371.104 491.946 372.963 491.377 374.342 490.24C375.742 489.102 376.442 487.604 376.442 485.733C376.442 483.753 375.829 482.211 374.604 481.095C373.379 479.991 371.738 479.105 369.704 478.426C367.691 477.726 365.525 476.983 363.228 476.195C359.488 474.883 356.644 473.22 354.697 471.207C352.739 469.173 351.765 466.471 351.765 463.113C351.7 460.258 352.378 457.808 353.778 455.763C355.2 453.695 357.125 452.109 359.553 450.993C362.003 449.856 364.814 449.287 367.997 449.287C371.235 449.287 374.079 449.878 376.529 451.037C379.001 452.175 380.948 453.783 382.348 455.85C383.748 457.928 384.492 460.389 384.58 463.244H375.129C375.064 461.56 374.396 460.05 373.117 458.738C371.859 457.425 370.109 456.769 367.866 456.769C365.941 456.714 364.322 457.184 363.01 458.169C361.697 459.164 361.041 460.608 361.041 462.5C361.041 464.108 361.533 465.388 362.528 466.351C363.546 467.291 364.935 468.079 366.685 468.713C368.435 469.359 370.448 470.048 372.723 470.77C375.107 471.623 377.295 472.596 379.286 473.701C381.266 474.817 382.852 476.283 384.055 478.12C385.247 479.936 385.849 482.255 385.849 485.077C385.849 487.615 385.192 489.977 383.88 492.165C382.589 494.331 380.686 496.059 378.148 497.371C375.61 498.684 372.504 499.34 368.829 499.34Z" fill="white"/>
</svg>
