<svg width="500" height="500" viewBox="0 0 500 500" fill="none" xmlns="http://www.w3.org/2000/svg">
<path fill-rule="evenodd" clip-rule="evenodd" d="M99.4442 409.889L105.122 415.467L105.687 416.032C123.338 434.217 123.15 463.49 105.122 481.42C87.0802 499.336 57.6434 499.525 39.3598 481.985L38.7947 481.42L33.1173 475.829L17.6724 460.413C-0.557454 442.295 -0.557454 412.645 17.6724 394.473C35.8887 376.355 65.7695 376.355 83.9993 394.473L99.4442 409.889ZM412.284 154.747L417.773 149.29L424.083 143.027L481.894 85.5413C500.124 67.4234 500.124 37.7735 481.894 19.5884C463.61 1.47053 433.797 1.47053 415.567 19.5884L357.756 77.0738L351.446 83.3505L345.957 88.8074L312.794 121.777C294.577 139.895 294.577 169.545 312.794 187.717L345.957 220.7L351.89 226.52L416.011 290.282C434.227 308.4 464.054 308.4 482.338 290.282C500.554 272.164 500.554 242.447 482.338 224.329L418.217 160.58L412.284 154.747ZM20.3227 20.032V19.9648C38.5391 1.84686 68.4199 1.84686 86.6497 19.9648L481.45 412.577C499.733 430.695 499.733 460.413 481.45 478.53C463.233 496.648 433.406 496.648 415.123 478.53L20.3227 85.9177C2.09293 67.7998 2.09293 38.1499 20.3227 20.032ZM19.7442 207.972C37.9741 189.854 67.7876 189.854 86.0712 207.972L131.034 252.661L228.318 349.393L292.438 413.142C310.655 431.26 310.655 460.977 292.438 479.095C274.155 497.213 244.328 497.213 226.111 479.095L161.991 415.346L64.7066 318.614L19.7442 273.924C1.52787 255.807 1.52787 226.089 19.7442 207.972Z" fill="white"/>
</svg>
